<?xml version="1.0" standalone="no"?><!DOCTYPE svg PUBLIC "-//W3C//DTD SVG 1.1//EN" "http://www.w3.org/Graphics/SVG/1.1/DTD/svg11.dtd"><svg t="1683260245333" class="icon" viewBox="0 0 1024 1024" version="1.1" xmlns="http://www.w3.org/2000/svg" p-id="1902" xmlns:xlink="http://www.w3.org/1999/xlink" width="200" height="200"><path d="M441.107692 157.538462c187.644062 0 341.976615 117.578831 360.479508 268.232861C640.110277 433.2544 512 543.058708 512 677.415385c0 24.158523 4.143262 47.529354 11.8784 69.65563-26.576738 5.12-54.287754 7.829662-82.770708 7.829662-51.664738 0-100.800985-8.916677-145.274092-24.977723L194.441846 787.692308l12.059569-103.849354C128.346585 629.058954 78.769231 547.414646 78.769231 456.215631 78.769231 291.264985 240.994462 157.538462 441.107692 157.538462z" fill="#34A3FB" fill-opacity=".3" p-id="1903"></path><path d="M923.529846 717.965785a145.242585 145.242585 0 0 0-49.853046 19.873477A121.407015 121.407015 0 0 1 819.2 770.268554a79.2576 79.2576 0 0 1 25.915077-47.395446 175.261538 175.261538 0 0 0 24.804431-57.407016c-0.063015-29.050092 23.780431-52.657231 53.263754-52.736 29.4912-0.078769 53.460677 23.394462 53.5552 52.444554 0.094523 29.050092-23.725292 52.680862-53.208616 52.791139z" fill="#29A2FE" p-id="1904"></path><path d="M769.599015 577.362708a52.799015 52.799015 0 0 1-48.781784-32.84677 53.507938 53.507938 0 0 1 11.445169-57.98203 52.499692 52.499692 0 0 1 57.540923-11.539693 53.216492 53.216492 0 0 1 32.594708 49.159877 145.707323 145.707323 0 0 0 19.715938 49.821539 121.328246 121.328246 0 0 1 32.224493 54.508307 79.541169 79.541169 0 0 1-47.167016-26.13563h-0.196923a175.616 175.616 0 0 0-57.375508-24.9856z" fill="#51E307" p-id="1905"></path><path d="M426.1888 191.306831c-180.476062 0-327.309785 119.232985-327.309785 265.869784 2.890831 82.345354 46.686523 157.908677 116.932923 201.775262a331.027692 331.027692 0 0 0 35.698216 22.764308l-14.517169 57.525169c5.230277 2.441846 10.310892 5.041231 15.6672 7.286154l73.294769-36.391385c10.712615 2.756923 21.976615 4.537108 33.161846 6.427569 7.136492 1.260308 14.280862 2.56 21.614277 3.426462 45.709785 5.718646 92.089108 3.072 136.845785-7.798154 1.378462 19.692308 5.001846 39.156185 10.791384 58.037169a455.506708 455.506708 0 0 1-102.179446 11.854769 447.330462 447.330462 0 0 1-91.781908-10.043076l-132.993969 65.921969a29.522708 29.522708 0 0 1-31.854277-3.308308 29.412431 29.412431 0 0 1-10.271508-30.168615l23.796185-95.1296C95.877908 654.296615 42.007631 559.749908 39.384615 457.176615c0-179.475692 173.174154-324.938831 386.804185-324.93883 202.838646 0 368.955077 131.284677 385.134277 298.165169a262.191262 262.191262 0 0 0-28.120615-2.756923c-10.507815 0.393846-21.023508 1.378462-31.452554 3.032615-16.147692-134.199138-156.16-239.379692-325.561108-239.379692z" fill="#34A3FB" p-id="1906"></path><path d="M612.462277 617.724062a145.037785 145.037785 0 0 0 49.837292-19.889231A121.367631 121.367631 0 0 1 716.8 565.460677a79.501785 79.501785 0 0 1-25.946585 47.340308 175.600246 175.600246 0 0 0-24.796553 57.485784c0.039385 29.057969-23.804062 52.657231-53.279508 52.720246-29.475446 0.063015-53.429169-23.425969-53.515816-52.483938-0.086646-29.065846 23.725292-52.696615 53.200739-52.799015z" fill="#FCE82A" p-id="1907"></path><path d="M716.744862 741.218462a176.773908 176.773908 0 0 0 57.399138 25.1904 52.932923 52.932923 0 0 1 48.899938 32.799507 53.271631 53.271631 0 0 1-11.4688 57.895385 52.783262 52.783262 0 0 1-57.682707 11.516061 53.129846 53.129846 0 0 1-32.681354-49.081107 144.352492 144.352492 0 0 0-19.597785-49.821539A120.958031 120.958031 0 0 1 669.538462 715.130092a79.745969 79.745969 0 0 1 47.2064 26.403446v-0.315076z" fill="#FA6F13" p-id="1908"></path></svg>